<svg id="bed" xmlns="http://www.w3.org/2000/svg" width="18" height="14" viewBox="0 0 18 14">
  <g id="Group_3" data-name="Group 3" transform="translate(0 0)">
    <path id="Path_7" data-name="Path 7" d="M16.259,80.474V76.726a2.123,2.123,0,0,0-2.177-2.059H3.918a2.123,2.123,0,0,0-2.177,2.059v3.748A2.1,2.1,0,0,0,0,82.491v5.765a.424.424,0,0,0,.435.412.424.424,0,0,0,.435-.412V87.02H17.129v1.235a.436.436,0,0,0,.871,0V82.491A2.1,2.1,0,0,0,16.259,80.474ZM2.612,76.726a1.274,1.274,0,0,1,1.306-1.235H14.082a1.274,1.274,0,0,1,1.306,1.235v3.706h-1.2a1.161,1.161,0,0,0,.044-.712L13.8,78.073a1.293,1.293,0,0,0-1.267-.936H10.694a1.274,1.274,0,0,0-1.306,1.235V80.02a1.163,1.163,0,0,0,.08.412H8.532a1.162,1.162,0,0,0,.08-.412V78.373a1.274,1.274,0,0,0-1.306-1.235H5.469a1.294,1.294,0,0,0-1.267.936L3.766,79.72a1.161,1.161,0,0,0,.044.712h-1.2Zm10.7,3.548a.442.442,0,0,1-.343.158H10.694a.424.424,0,0,1-.435-.412V78.373a.424.424,0,0,1,.435-.412h1.837a.431.431,0,0,1,.422.312l.435,1.647A.39.39,0,0,1,13.31,80.274Zm-5.569-1.9v1.647a.424.424,0,0,1-.435.412H5.032a.441.441,0,0,1-.343-.158.392.392,0,0,1-.079-.353l.435-1.647a.434.434,0,0,1,.422-.312H7.305A.424.424,0,0,1,7.74,78.372ZM17.129,86.2H.871v-.824H17.129V86.2Zm0-1.647H.871V82.491a1.274,1.274,0,0,1,1.306-1.235H15.823a1.274,1.274,0,0,1,1.306,1.235v2.059Z" transform="translate(0 -74.667)" fill="#5f666b"/>
  </g>
</svg>
