<svg xmlns="http://www.w3.org/2000/svg" width="40" height="40" viewBox="0 0 40 40">
  <g id="camera" transform="translate(-86 -164)">
    <g id="Box" transform="translate(86 164)" fill="#fff" stroke="#707070" stroke-width="1" opacity="0">
      <rect width="40" height="40" stroke="none"/>
      <rect x="0.5" y="0.5" width="39" height="39" fill="none"/>
    </g>
    <g id="Icon">
      <circle id="Ellipse_106" data-name="Ellipse 106" cx="10.5" cy="10.5" r="10.5" transform="translate(100 175)" fill="#fff"/>
      <path id="Path_32" data-name="Path 32" d="M261.618,204.8a5.121,5.121,0,0,0-2.622.749,1.483,1.483,0,0,1,.936,1.5,1.769,1.769,0,0,1-1.873,1.873,1.91,1.91,0,0,1-1.5-.936,5.184,5.184,0,0,0-.562,2.434,5.618,5.618,0,1,0,11.236,0A5.634,5.634,0,0,0,261.618,204.8Z" transform="translate(-150.883 -24.541)" fill="#ff7f5c"/>
      <path id="Path_33" data-name="Path 33" d="M36.1,54.95H34.2l-1.71-3.187c0-.375-.38-.562-.76-.562H21.47c-.38,0-.76.188-.76.563L19,54.95H11.5v-.937a.892.892,0,0,0-.95-.938H6.75a.892.892,0,0,0-.95.938v.937H3.9A1.783,1.783,0,0,0,2,56.825v22.5A1.783,1.783,0,0,0,3.9,81.2H36.1A1.783,1.783,0,0,0,38,79.325v-22.5A1.783,1.783,0,0,0,36.1,54.95ZM7.7,62.45a1.892,1.892,0,0,1-1.9-1.875A1.783,1.783,0,0,1,7.7,58.7a1.875,1.875,0,1,1,0,3.75Zm17,15a9.376,9.376,0,1,1,0-18.75,9.376,9.376,0,1,1,0,18.75Z" transform="translate(86 117.8)" fill="#ff7f5c"/>
    </g>
  </g>
</svg>
