<svg id="for_rent" xmlns="http://www.w3.org/2000/svg" width="64" height="64" viewBox="0 0 64 64">
  <path id="Path_117" data-name="Path 117" d="M0,0H64V64H0Z" fill="none"/>
  <path id="Path_118" data-name="Path 118" d="M24,36.667c-6.24,0-18.667,3.12-18.667,9.333v4.667H42.667V46C42.667,39.787,30.24,36.667,24,36.667ZM11.573,45.333C13.813,43.787,19.227,42,24,42s10.187,1.787,12.427,3.333ZM24,32a9.333,9.333,0,1,0-9.333-9.333A9.344,9.344,0,0,0,24,32Zm0-13.333a4,4,0,1,1-4,4A3.995,3.995,0,0,1,24,18.667Zm18.773,18.16C45.867,39.067,48,42.053,48,46v4.667H58.667V46C58.667,40.613,49.333,37.547,42.773,36.827ZM40,32a9.333,9.333,0,1,0,0-18.667,9.188,9.188,0,0,0-4,.933,14.563,14.563,0,0,1,0,16.8A9.188,9.188,0,0,0,40,32Z" fill="#ff7f5c"/>
</svg>
