<svg id="for_seller" xmlns="http://www.w3.org/2000/svg" width="64" height="64" viewBox="0 0 64 64">
  <path id="Path_120" data-name="Path 120" d="M0,0H64V64H0Z" fill="none"/>
  <path id="Path_121" data-name="Path 121" d="M29.333,45.333h5.333V42.667h2.667A2.675,2.675,0,0,0,40,40V32a2.675,2.675,0,0,0-2.667-2.667h-8V26.667H40V21.333H34.667V18.667H29.333v2.667H26.667A2.675,2.675,0,0,0,24,24v8a2.675,2.675,0,0,0,2.667,2.667h8v2.667H24v5.333h5.333Zm24-34.667H10.667A5.292,5.292,0,0,0,5.36,16L5.333,48a5.315,5.315,0,0,0,5.333,5.333H53.333A5.315,5.315,0,0,0,58.667,48V16A5.315,5.315,0,0,0,53.333,10.667Zm0,37.333H10.667V16H53.333Z" fill="#4749a0"/>
</svg>
