<svg xmlns="http://www.w3.org/2000/svg" width="20" height="20" viewBox="0 0 20 20">
  <g id="home" transform="translate(-117 -344)">
    <rect id="Rectangle_40" data-name="Rectangle 40" width="20" height="20" transform="translate(117 344)" fill="#dbdbdb" opacity="0"/>
    <g id="size" transform="translate(120 345)">
      <path id="Path_18" data-name="Path 18" d="M.8,5.663l.857-.528v7.2a.525.525,0,0,0,0,1.05H11.988a.525.525,0,0,0,0-1.05v-7.2l.857.528a.525.525,0,1,0,.551-.894L7.436,1.1l-.015-.009,0,0A1.163,1.163,0,0,0,6.209,1.1l-.787.485V.955A.957.957,0,0,0,4.465,0H3.556A.957.957,0,0,0,2.6.955V3.322L.25,4.769A.525.525,0,1,0,.8,5.663Zm6.5,6.671H6.342v-2.4A.256.256,0,0,1,6.6,9.679h.445a.256.256,0,0,1,.258.253Zm3.635,0H8.353v-2.4a1.307,1.307,0,0,0-1.308-1.3H6.6a1.307,1.307,0,0,0-1.308,1.3v2.4H2.707V4.488l4.053-2.5,0,0a.121.121,0,0,1,.122,0l4.053,2.5ZM3.648,1.049h.725v1.18l-.725.446Zm0,0" transform="translate(0)" fill="#5f666b"/>
      <path id="Path_19" data-name="Path 19" d="M151.434,121.483v1.642a.7.7,0,0,0,.7.7h1.653a.7.7,0,0,0,.7-.7v-1.642a.7.7,0,0,0-.7-.7h-1.653A.7.7,0,0,0,151.434,121.483Zm1.05.352h.949v.938h-.949Zm0,0" transform="translate(-146.136 -116.56)" fill="#5f666b"/>
      <path id="Path_20" data-name="Path 20" d="M16.07,420.61l-1.193-.979a.525.525,0,0,0-.666.811l.2.163H4.7l.2-.163a.525.525,0,1,0-.666-.811l-1.193.979a.672.672,0,0,0,0,1.04l1.193.979a.525.525,0,0,0,.666-.811l-.2-.163h9.71l-.2.163a.525.525,0,0,0,.666.811l1.193-.979a.672.672,0,0,0,0-1.04Zm0,0" transform="translate(-2.695 -404.836)" fill="#5f666b"/>
    </g>
  </g>
</svg>
