<svg xmlns="http://www.w3.org/2000/svg" width="18" height="16" viewBox="0 0 18 16">
  <g id="hygienic" transform="translate(0 -16.678)">
    <g id="Group_5" data-name="Group 5" transform="translate(0 23.809)">
      <g id="Group_4" data-name="Group 4">
        <path id="Path_8" data-name="Path 8" d="M16.6,243.036H1.4a1.4,1.4,0,0,0-.45,2.72v1A4.755,4.755,0,0,0,2.771,250.5l-.6.6a.474.474,0,1,0,.67.67l.749-.749a4.731,4.731,0,0,0,2.116.5h6.584a4.731,4.731,0,0,0,2.116-.5l.749.749a.474.474,0,1,0,.67-.67l-.6-.6a4.755,4.755,0,0,0,1.824-3.745v-1a1.4,1.4,0,0,0-.45-2.72Zm-7.539,2.321v-1.374h4.61v3.051a.786.786,0,0,1-.785.786H9.849a.786.786,0,0,1-.785-.786v-1.678ZM1.4,244.883a.45.45,0,0,1,0-.9H8.116v.9H1.4Zm14.708,1.871a3.817,3.817,0,0,1-3.813,3.813H5.708a3.817,3.817,0,0,1-3.813-3.813v-.924H8.116v1.2a1.735,1.735,0,0,0,1.733,1.733h3.04a1.735,1.735,0,0,0,1.733-1.733v-1.2h1.484v.924Zm.5-1.871H14.621v-.9H16.6a.45.45,0,0,1,0,.9Z" transform="translate(0 -243.036)" fill="#5f666b"/>
      </g>
    </g>
    <g id="Group_7" data-name="Group 7" transform="translate(2.984 16.678)">
      <g id="Group_6" data-name="Group 6">
        <path id="Path_9" data-name="Path 9" d="M90.058,18.758a2.514,2.514,0,0,0-2.473-2.08H87.4a2.513,2.513,0,0,0-2.511,2.511v2.858a.474.474,0,1,0,.947,0V19.189A1.565,1.565,0,0,1,87.4,17.625h.189a1.566,1.566,0,0,1,1.508,1.154,2.217,2.217,0,0,0-1.685,2.149v.534a.474.474,0,0,0,.474.474h3.48a.474.474,0,0,0,.474-.474v-.534A2.217,2.217,0,0,0,90.058,18.758Zm.83,2.23H88.356v-.06a1.266,1.266,0,0,1,2.532,0Z" transform="translate(-84.885 -16.678)" fill="#5f666b"/>
      </g>
    </g>
    <g id="Group_9" data-name="Group 9" transform="translate(2.984 22.71)">
      <g id="Group_8" data-name="Group 8">
        <path id="Path_10" data-name="Path 10" d="M85.692,197.818a.454.454,0,0,0-.072-.059.485.485,0,0,0-.081-.044.5.5,0,0,0-.089-.027.464.464,0,0,0-.185,0,.479.479,0,0,0-.089.027.472.472,0,0,0-.082.044.46.46,0,0,0-.131.131.466.466,0,0,0-.044.082.445.445,0,0,0-.027.089.467.467,0,0,0-.009.092.476.476,0,0,0,.009.093.465.465,0,0,0,.027.089.482.482,0,0,0,.044.081.454.454,0,0,0,.059.072.48.48,0,0,0,.072.059.469.469,0,0,0,.082.044.477.477,0,0,0,.089.027.478.478,0,0,0,.185,0,.494.494,0,0,0,.089-.027.473.473,0,0,0,.153-.1.473.473,0,0,0,0-.67Z" transform="translate(-84.883 -197.679)" fill="#5f666b"/>
      </g>
    </g>
  </g>
</svg>
