<svg xmlns="http://www.w3.org/2000/svg" width="1024" height="150.742" viewBox="0 0 1024 150.742">
  <path id="logo_purple" d="M90.053-5.341h18.516V134.131H90.053V71.137H19.814v62.994H1.5V-5.341H19.814V56.647H90.053ZM216.645,23.64h18.314V134.131H216.645V116.42q-11.069,19.522-36.025,19.522-18.314,0-30.591-12.176T137.752,89.25V23.64h18.113V86.231q0,16.5,8.151,25.258t22.239,8.755q14.088,0,22.239-8.755t8.151-25.258Zm104.151,96.6q15.4,0,26.365-11.572t10.969-30.39q0-18.818-10.969-29.686A36.115,36.115,0,0,0,320.8,37.728,35.474,35.474,0,0,0,294.431,49q-10.969,11.27-10.969,29.887t10.969,29.987A35.324,35.324,0,0,0,320.8,120.244Zm3.522-98.415q22.742,0,37.736,15.6t14.994,40.855q0,25.258-15.094,41.459t-37.635,16.2q-14.088,0-24.654-6.742a45.381,45.381,0,0,1-16.2-17.61v22.541H265.148V-14.8h18.314V45.779a45.043,45.043,0,0,1,16.2-17.308Q310.23,21.829,324.318,21.829Zm106.868-2.616V49h48.1V74.961h-48.1v31.6h54.138v27.572H396.771V-8.158h88.553V19.213ZM545.7,20.42q21.333,0,34.113,10.667t16,28.176h-32.2a17.838,17.838,0,0,0-6.34-10.767A19.252,19.252,0,0,0,544.9,44.571q-5.836,0-8.855,2.516a8.78,8.78,0,0,0-3.019,7.145q0,5.233,5.535,7.849t17.409,5.233A172.879,172.879,0,0,1,577.1,73.452a34.862,34.862,0,0,1,14.289,10.164q6.038,7.044,6.038,18.918a29.013,29.013,0,0,1-5.233,17.107q-5.233,7.447-15.094,11.673t-23.346,4.226q-22.742,0-36.428-10.063T500.62,96.7h33.208a14.944,14.944,0,0,0,6.138,11.069q5.333,3.824,13.786,3.824,5.836,0,8.855-2.717a9.153,9.153,0,0,0,3.019-7.145q0-5.836-5.535-8.352t-18.013-5.333a144.034,144.034,0,0,1-20.528-5.635,33.891,33.891,0,0,1-13.887-9.761q-5.836-6.742-5.836-18.415,0-15.094,11.472-24.453T545.7,20.42Zm134.44,84.126v29.585h-15.5q-19.723,0-30.692-9.761t-10.969-32.3V50.81H607.89V21.829h15.094V-5.743H657.4V21.829H679.94V50.81H657.4V92.672q0,6.642,2.717,9.258t9.157,2.616ZM742.129,20.42q12.88,0,22.138,5.836a35.087,35.087,0,0,1,13.686,15.9V21.829h34.214v112.3H777.953V113.8a35.087,35.087,0,0,1-13.686,15.9q-9.258,5.836-22.138,5.836a45.483,45.483,0,0,1-24.855-6.943q-10.968-6.943-17.308-20.025t-6.34-30.591q0-17.711,6.34-30.692a47.618,47.618,0,0,1,17.308-19.925A45.484,45.484,0,0,1,742.129,20.42ZM753.2,50.609q-11.069,0-17.811,7.245T728.645,77.98q0,12.881,6.742,20.126t17.811,7.245q10.868,0,17.811-7.447t6.943-19.925q0-12.679-6.943-20.025T753.2,50.609Zm146.315,53.937v29.585h-15.5q-19.723,0-30.692-9.761t-10.969-32.3V50.81H827.261V21.829h15.094V-5.743H876.77V21.829h22.541V50.81H876.77V92.672q0,6.642,2.717,9.258t9.157,2.616ZM1025.5,74.961a47.479,47.479,0,0,1-1.006,9.258H946.607q.6,12.679,6.44,18.214t14.893,5.535q7.648,0,12.679-3.824a17.856,17.856,0,0,0,6.642-9.862h36.428a47.6,47.6,0,0,1-9.66,21.233,51.488,51.488,0,0,1-18.918,14.692,59.9,59.9,0,0,1-25.56,5.333q-16.5,0-29.283-6.943a49.613,49.613,0,0,1-20.025-20.025Q913,95.489,913,77.98q0-17.711,7.145-30.692a48.964,48.964,0,0,1,20.025-19.925q12.88-6.943,29.384-6.943,16.7,0,29.384,6.843a48.341,48.341,0,0,1,19.623,19.22Q1025.5,58.86,1025.5,74.961Zm-34.818-5.233q.2-11.069-5.937-16.6a21.855,21.855,0,0,0-15.2-5.535q-9.459,0-15.7,5.635t-7.044,16.5Z" transform="translate(-1.5 14.8)" fill="#4749a0"/>
</svg>
