<?xml version="1.0" standalone="no"?>
<!DOCTYPE svg PUBLIC "-//W3C//DTD SVG 20010904//EN"
 "http://www.w3.org/TR/2001/REC-SVG-20010904/DTD/svg10.dtd">
<svg version="1.0" xmlns="http://www.w3.org/2000/svg"
 width="150.000000pt" height="150.000000pt" viewBox="0 0 150.000000 150.000000"
 preserveAspectRatio="xMidYMid meet">
<metadata>
Created by potrace 1.14, written by Peter Selinger 2001-2017
</metadata>
<g transform="translate(0.000000,150.000000) scale(0.100000,-0.100000)"
fill="#000000" stroke="none">
<path d="M0 750 l0 -750 750 0 750 0 0 750 0 750 -750 0 -750 0 0 -750z m1300
280 l0 -70 -135 0 -135 0 0 -70 0 -70 120 0 120 0 0 -65 0 -65 -120 0 -120 0
0 -80 0 -80 135 0 135 0 0 -65 0 -65 -220 0 -220 0 0 350 0 350 220 0 220 0 0
-70z m-1010 -95 l0 -155 175 0 175 0 0 155 0 155 45 0 45 0 0 -345 0 -345 -45
0 -44 0 -3 153 -3 152 -172 3 -173 2 0 -155 0 -155 -45 0 -45 0 0 345 0 345
45 0 45 0 0 -155z"/>
</g>
</svg>
